<svg width="63" height="68" viewBox="0 0 63 68" fill="none" xmlns="http://www.w3.org/2000/svg">
<path d="M61.8124 24.1873V61.8123L57.8749 65.3123H5.58936L1.43749 61.8123L1.65624 42.9998L1.87499 24.1873H61.8124Z" fill="black"/>
<path d="M1.43749 61.8123C25.0154 61.8123 38.2345 61.8123 61.8124 61.8123M1.43749 61.8123L1.65624 42.9998L1.87499 24.1873H61.8124V61.8123M1.43749 61.8123L5.58936 65.3123H57.8749L61.8124 61.8123" stroke="black"/>
<path d="M45.9478 42.8037V43.1748H43.3794V42.9087L44.9712 40.4453H45.3398L44.9443 41.1582L43.8921 42.8037H45.9478ZM45.4521 40.4453V44H45.0005V40.4453H45.4521ZM48.5894 41.9395V42.4814C48.5894 42.7728 48.5633 43.0186 48.5112 43.2188C48.4591 43.4189 48.3843 43.5801 48.2866 43.7021C48.189 43.8242 48.071 43.9129 47.9326 43.9683C47.7959 44.022 47.6413 44.0488 47.4687 44.0488C47.332 44.0488 47.2059 44.0317 47.0903 43.9976C46.9748 43.9634 46.8706 43.9089 46.7778 43.834C46.6867 43.7575 46.6086 43.6582 46.5435 43.5361C46.4783 43.4141 46.4287 43.266 46.3945 43.0918C46.3603 42.9176 46.3433 42.7142 46.3433 42.4814V41.9395C46.3433 41.6481 46.3693 41.404 46.4214 41.207C46.4751 41.0101 46.5508 40.8522 46.6484 40.7334C46.7461 40.613 46.8633 40.5267 47 40.4746C47.1383 40.4225 47.293 40.3965 47.4639 40.3965C47.6022 40.3965 47.7292 40.4136 47.8447 40.4478C47.9619 40.4803 48.0661 40.5332 48.1572 40.6064C48.2484 40.6781 48.3257 40.7741 48.3892 40.8945C48.4543 41.0133 48.5039 41.159 48.5381 41.3315C48.5723 41.5041 48.5894 41.7067 48.5894 41.9395ZM48.1353 42.5547V41.8638C48.1353 41.7043 48.1255 41.5643 48.106 41.4438C48.0881 41.3218 48.0612 41.2176 48.0254 41.1313C47.9896 41.0451 47.944 40.9751 47.8887 40.9214C47.835 40.8677 47.7723 40.8286 47.7007 40.8042C47.6307 40.7782 47.5518 40.7651 47.4639 40.7651C47.3564 40.7651 47.2612 40.7855 47.1782 40.8262C47.0952 40.8652 47.0252 40.9279 46.9683 41.0142C46.9129 41.1004 46.8706 41.2135 46.8413 41.3535C46.812 41.4935 46.7974 41.6636 46.7974 41.8638V42.5547C46.7974 42.7142 46.8063 42.855 46.8242 42.9771C46.8437 43.0991 46.8722 43.2049 46.9097 43.2944C46.9471 43.3823 46.9927 43.4548 47.0464 43.5117C47.1001 43.5687 47.1619 43.611 47.2319 43.6387C47.3035 43.6647 47.3825 43.6777 47.4687 43.6777C47.5794 43.6777 47.6763 43.6566 47.7593 43.6143C47.8423 43.5719 47.9115 43.506 47.9668 43.4165C48.0238 43.3254 48.0661 43.209 48.0937 43.0674C48.1214 42.9242 48.1353 42.7533 48.1353 42.5547Z" fill="white"/>
<path d="M44.1167 49.3081L43.7554 49.2153L43.9336 47.4453H45.7573V47.8628H44.3169L44.2095 48.8296C44.2746 48.7922 44.3568 48.7572 44.4561 48.7246C44.557 48.6921 44.6725 48.6758 44.8027 48.6758C44.9671 48.6758 45.1144 48.7043 45.2446 48.7612C45.3748 48.8166 45.4855 48.8963 45.5767 49.0005C45.6694 49.1047 45.7402 49.23 45.7891 49.3765C45.8379 49.5229 45.8623 49.6865 45.8623 49.8672C45.8623 50.0381 45.8387 50.1951 45.7915 50.3384C45.7459 50.4816 45.6768 50.6069 45.584 50.7144C45.4912 50.8201 45.374 50.9023 45.2324 50.9609C45.0924 51.0195 44.9272 51.0488 44.7368 51.0488C44.5936 51.0488 44.4577 51.0293 44.3291 50.9902C44.2021 50.9495 44.0882 50.8885 43.9873 50.8071C43.888 50.7241 43.8066 50.6216 43.7432 50.4995C43.6813 50.3758 43.6422 50.231 43.626 50.0649H44.0557C44.0752 50.1984 44.1143 50.3107 44.1728 50.4019C44.2314 50.493 44.3079 50.5622 44.4023 50.6094C44.4984 50.6549 44.6099 50.6777 44.7368 50.6777C44.8442 50.6777 44.9394 50.659 45.0225 50.6216C45.1055 50.5841 45.1755 50.5304 45.2324 50.4604C45.2894 50.3905 45.3325 50.3058 45.3618 50.2065C45.3927 50.1073 45.4082 49.9958 45.4082 49.8721C45.4082 49.7598 45.3927 49.6556 45.3618 49.5596C45.3309 49.4635 45.2845 49.3797 45.2227 49.3081C45.1624 49.2365 45.0884 49.1812 45.0005 49.1421C44.9126 49.1014 44.8117 49.0811 44.6978 49.0811C44.5464 49.0811 44.4316 49.1014 44.3535 49.1421C44.277 49.1828 44.1981 49.2381 44.1167 49.3081ZM48.5894 48.9395V49.4814C48.5894 49.7728 48.5633 50.0186 48.5112 50.2188C48.4591 50.4189 48.3843 50.5801 48.2866 50.7021C48.189 50.8242 48.071 50.9129 47.9326 50.9683C47.7959 51.022 47.6413 51.0488 47.4687 51.0488C47.332 51.0488 47.2059 51.0317 47.0903 50.9976C46.9748 50.9634 46.8706 50.9089 46.7778 50.834C46.6867 50.7575 46.6086 50.6582 46.5435 50.5361C46.4783 50.4141 46.4287 50.266 46.3945 50.0918C46.3603 49.9176 46.3433 49.7142 46.3433 49.4814V48.9395C46.3433 48.6481 46.3693 48.404 46.4214 48.207C46.4751 48.0101 46.5508 47.8522 46.6484 47.7334C46.7461 47.613 46.8633 47.5267 47 47.4746C47.1383 47.4225 47.293 47.3965 47.4639 47.3965C47.6022 47.3965 47.7292 47.4136 47.8447 47.4478C47.9619 47.4803 48.0661 47.5332 48.1572 47.6064C48.2484 47.6781 48.3257 47.7741 48.3892 47.8945C48.4543 48.0133 48.5039 48.159 48.5381 48.3315C48.5723 48.5041 48.5894 48.7067 48.5894 48.9395ZM48.1353 49.5547V48.8638C48.1353 48.7043 48.1255 48.5643 48.106 48.4438C48.0881 48.3218 48.0612 48.2176 48.0254 48.1313C47.9896 48.0451 47.944 47.9751 47.8887 47.9214C47.835 47.8677 47.7723 47.8286 47.7007 47.8042C47.6307 47.7782 47.5518 47.7651 47.4639 47.7651C47.3564 47.7651 47.2612 47.7855 47.1782 47.8262C47.0952 47.8652 47.0252 47.9279 46.9683 48.0142C46.9129 48.1004 46.8706 48.2135 46.8413 48.3535C46.812 48.4935 46.7974 48.6636 46.7974 48.8638V49.5547C46.7974 49.7142 46.8063 49.855 46.8242 49.9771C46.8437 50.0991 46.8722 50.2049 46.9097 50.2944C46.9471 50.3823 46.9927 50.4548 47.0464 50.5117C47.1001 50.5687 47.1619 50.611 47.2319 50.6387C47.3035 50.6647 47.3825 50.6777 47.4687 50.6777C47.5794 50.6777 47.6763 50.6566 47.7593 50.6143C47.8423 50.5719 47.9115 50.506 47.9668 50.4165C48.0238 50.3254 48.0661 50.209 48.0937 50.0674C48.1214 49.9242 48.1353 49.7533 48.1353 49.5547Z" fill="white"/>
<path d="M45.8428 60.4453V60.6992L44.3706 64H43.8945L45.3643 60.8164H43.4404V60.4453H45.8428ZM48.5894 61.9395V62.4814C48.5894 62.7728 48.5633 63.0186 48.5112 63.2188C48.4591 63.4189 48.3843 63.5801 48.2866 63.7021C48.189 63.8242 48.071 63.9129 47.9326 63.9683C47.7959 64.022 47.6413 64.0488 47.4687 64.0488C47.332 64.0488 47.2059 64.0317 47.0903 63.9976C46.9748 63.9634 46.8706 63.9089 46.7778 63.834C46.6867 63.7575 46.6086 63.6582 46.5435 63.5361C46.4783 63.4141 46.4287 63.266 46.3945 63.0918C46.3603 62.9176 46.3433 62.7142 46.3433 62.4814V61.9395C46.3433 61.6481 46.3693 61.404 46.4214 61.207C46.4751 61.0101 46.5508 60.8522 46.6484 60.7334C46.7461 60.613 46.8633 60.5267 47 60.4746C47.1383 60.4225 47.293 60.3965 47.4639 60.3965C47.6022 60.3965 47.7292 60.4136 47.8447 60.4478C47.9619 60.4803 48.0661 60.5332 48.1572 60.6064C48.2484 60.6781 48.3257 60.7741 48.3892 60.8945C48.4543 61.0133 48.5039 61.159 48.5381 61.3315C48.5723 61.5041 48.5894 61.7067 48.5894 61.9395ZM48.1353 62.5547V61.8638C48.1353 61.7043 48.1255 61.5643 48.106 61.4438C48.0881 61.3218 48.0612 61.2176 48.0254 61.1313C47.9896 61.0451 47.944 60.9751 47.8887 60.9214C47.835 60.8677 47.7723 60.8286 47.7007 60.8042C47.6307 60.7782 47.5518 60.7651 47.4639 60.7651C47.3564 60.7651 47.2612 60.7855 47.1782 60.8262C47.0952 60.8652 47.0252 60.9279 46.9683 61.0142C46.9129 61.1004 46.8706 61.2135 46.8413 61.3535C46.812 61.4935 46.7974 61.6636 46.7974 61.8638V62.5547C46.7974 62.7142 46.8063 62.855 46.8242 62.9771C46.8437 63.0991 46.8722 63.2049 46.9097 63.2944C46.9471 63.3823 46.9927 63.4548 47.0464 63.5117C47.1001 63.5687 47.1619 63.611 47.2319 63.6387C47.3035 63.6647 47.3825 63.6777 47.4687 63.6777C47.5794 63.6777 47.6763 63.6566 47.7593 63.6143C47.8423 63.5719 47.9115 63.506 47.9668 63.4165C48.0238 63.3254 48.0661 63.209 48.0937 63.0674C48.1214 62.9242 48.1353 62.7533 48.1353 62.5547Z" fill="white"/>
<path d="M45.2788 53.4404H45.3179V53.8237H45.2788C45.0395 53.8237 44.8394 53.8628 44.6782 53.9409C44.5171 54.0174 44.3893 54.1208 44.2949 54.251C44.2005 54.3796 44.1322 54.5244 44.0898 54.6855C44.0492 54.8467 44.0288 55.0103 44.0288 55.1763V55.6987C44.0288 55.8566 44.0475 55.9966 44.085 56.1187C44.1224 56.2391 44.1737 56.3408 44.2388 56.4238C44.3039 56.5068 44.3771 56.5695 44.4585 56.6118C44.5415 56.6541 44.6278 56.6753 44.7173 56.6753C44.8214 56.6753 44.9142 56.6558 44.9956 56.6167C45.077 56.576 45.1453 56.5199 45.2007 56.4482C45.2576 56.375 45.3008 56.2887 45.3301 56.1895C45.3594 56.0902 45.374 55.9811 45.374 55.8623C45.374 55.7565 45.361 55.6548 45.335 55.5571C45.3089 55.4578 45.269 55.37 45.2153 55.2935C45.1616 55.2153 45.0941 55.1543 45.0127 55.1104C44.9329 55.0648 44.8377 55.042 44.727 55.042C44.6017 55.042 44.4845 55.0729 44.3755 55.1348C44.2681 55.195 44.1794 55.2747 44.1094 55.374C44.041 55.4717 44.0019 55.5783 43.9922 55.6938L43.7529 55.6914C43.7757 55.5091 43.818 55.3537 43.8799 55.2251C43.9434 55.0949 44.0215 54.9891 44.1143 54.9077C44.2087 54.8247 44.3136 54.7645 44.4292 54.7271C44.5464 54.688 44.6701 54.6685 44.8003 54.6685C44.9777 54.6685 45.1307 54.7018 45.2593 54.7686C45.3879 54.8353 45.4936 54.9248 45.5767 55.0371C45.6597 55.1478 45.7207 55.2731 45.7598 55.4131C45.8005 55.5514 45.8208 55.6938 45.8208 55.8403C45.8208 56.008 45.7972 56.165 45.75 56.3115C45.7028 56.458 45.632 56.5866 45.5376 56.6973C45.4448 56.8079 45.3301 56.8942 45.1934 56.9561C45.0566 57.0179 44.8979 57.0488 44.7173 57.0488C44.5252 57.0488 44.3576 57.0098 44.2144 56.9316C44.0711 56.8519 43.9523 56.7461 43.8579 56.6143C43.7635 56.4824 43.6927 56.3359 43.6455 56.1748C43.5983 56.0137 43.5747 55.8501 43.5747 55.6841V55.4717C43.5747 55.221 43.5999 54.9753 43.6504 54.7344C43.7008 54.4935 43.7879 54.2754 43.9116 54.0801C44.0369 53.8848 44.2103 53.7293 44.4316 53.6138C44.653 53.4982 44.9354 53.4404 45.2788 53.4404ZM48.5894 54.9395V55.4814C48.5894 55.7728 48.5633 56.0186 48.5112 56.2188C48.4591 56.4189 48.3843 56.5801 48.2866 56.7021C48.189 56.8242 48.071 56.9129 47.9326 56.9683C47.7959 57.022 47.6413 57.0488 47.4687 57.0488C47.332 57.0488 47.2059 57.0317 47.0903 56.9976C46.9748 56.9634 46.8706 56.9089 46.7778 56.834C46.6867 56.7575 46.6086 56.6582 46.5435 56.5361C46.4783 56.4141 46.4287 56.266 46.3945 56.0918C46.3603 55.9176 46.3433 55.7142 46.3433 55.4814V54.9395C46.3433 54.6481 46.3693 54.404 46.4214 54.207C46.4751 54.0101 46.5508 53.8522 46.6484 53.7334C46.7461 53.613 46.8633 53.5267 47 53.4746C47.1383 53.4225 47.293 53.3965 47.4639 53.3965C47.6022 53.3965 47.7292 53.4136 47.8447 53.4478C47.9619 53.4803 48.0661 53.5332 48.1572 53.6064C48.2484 53.6781 48.3257 53.7741 48.3892 53.8945C48.4543 54.0133 48.5039 54.159 48.5381 54.3315C48.5723 54.5041 48.5894 54.7067 48.5894 54.9395ZM48.1353 55.5547V54.8638C48.1353 54.7043 48.1255 54.5643 48.106 54.4438C48.0881 54.3218 48.0612 54.2176 48.0254 54.1313C47.9896 54.0451 47.944 53.9751 47.8887 53.9214C47.835 53.8677 47.7723 53.8286 47.7007 53.8042C47.6307 53.7782 47.5518 53.7651 47.4639 53.7651C47.3564 53.7651 47.2612 53.7855 47.1782 53.8262C47.0952 53.8652 47.0252 53.9279 46.9683 54.0142C46.9129 54.1004 46.8706 54.2135 46.8413 54.3535C46.812 54.4935 46.7974 54.6636 46.7974 54.8638V55.5547C46.7974 55.7142 46.8063 55.855 46.8242 55.9771C46.8437 56.0991 46.8722 56.2049 46.9097 56.2944C46.9471 56.3823 46.9927 56.4548 47.0464 56.5117C47.1001 56.5687 47.1619 56.611 47.2319 56.6387C47.3035 56.6647 47.3825 56.6777 47.4687 56.6777C47.5794 56.6777 47.6763 56.6566 47.7593 56.6143C47.8423 56.5719 47.9115 56.506 47.9668 56.4165C48.0238 56.3254 48.0661 56.209 48.0937 56.0674C48.1214 55.9242 48.1353 55.7533 48.1353 55.5547Z" fill="white"/>
<path d="M44.2046 35.0005H44.5269C44.6847 35.0005 44.8149 34.9744 44.9175 34.9224C45.0216 34.8687 45.099 34.7962 45.1494 34.7051C45.2015 34.6123 45.2275 34.5081 45.2275 34.3926C45.2275 34.2559 45.2047 34.1411 45.1592 34.0483C45.1136 33.9556 45.0452 33.8856 44.9541 33.8384C44.863 33.7912 44.7474 33.7676 44.6074 33.7676C44.4805 33.7676 44.3682 33.7928 44.2705 33.8433C44.1745 33.8921 44.0988 33.9621 44.0435 34.0532C43.9897 34.1444 43.9629 34.2518 43.9629 34.3755H43.5112C43.5112 34.1948 43.5568 34.0304 43.6479 33.8823C43.7391 33.7342 43.8669 33.6162 44.0312 33.5283C44.1973 33.4404 44.3893 33.3965 44.6074 33.3965C44.8223 33.3965 45.0103 33.4347 45.1714 33.5112C45.3325 33.5861 45.4578 33.6984 45.5474 33.8481C45.6369 33.9963 45.6816 34.181 45.6816 34.4023C45.6816 34.4919 45.6605 34.5879 45.6182 34.6904C45.5775 34.7913 45.5132 34.8857 45.4253 34.9736C45.339 35.0615 45.2267 35.134 45.0884 35.1909C44.95 35.2463 44.784 35.2739 44.5903 35.2739H44.2046V35.0005ZM44.2046 35.3716V35.1006H44.5903C44.8166 35.1006 45.0037 35.1274 45.1519 35.1812C45.3 35.2349 45.4163 35.3065 45.501 35.396C45.5872 35.4855 45.6475 35.584 45.6816 35.6914C45.7174 35.7972 45.7353 35.903 45.7353 36.0088C45.7353 36.1748 45.7069 36.3221 45.6499 36.4507C45.5946 36.5793 45.5156 36.6883 45.4131 36.7778C45.3122 36.8674 45.1934 36.9349 45.0566 36.9805C44.9199 37.026 44.771 37.0488 44.6099 37.0488C44.4552 37.0488 44.3096 37.0269 44.1728 36.9829C44.0378 36.939 43.9181 36.8755 43.814 36.7925C43.7098 36.7078 43.6284 36.6045 43.5698 36.4824C43.5112 36.3587 43.4819 36.2179 43.4819 36.0601H43.9336C43.9336 36.1838 43.9604 36.292 44.0142 36.3848C44.0695 36.4775 44.1476 36.55 44.2485 36.6021C44.3511 36.6525 44.4715 36.6777 44.6099 36.6777C44.7482 36.6777 44.867 36.6541 44.9663 36.6069C45.0672 36.5581 45.1445 36.4849 45.1982 36.3872C45.2536 36.2896 45.2812 36.1667 45.2812 36.0186C45.2812 35.8704 45.2503 35.7492 45.1885 35.6548C45.1266 35.5588 45.0387 35.488 44.9248 35.4424C44.8125 35.3952 44.6798 35.3716 44.5269 35.3716H44.2046ZM48.5894 34.9395V35.4814C48.5894 35.7728 48.5633 36.0186 48.5112 36.2188C48.4591 36.4189 48.3843 36.5801 48.2866 36.7021C48.189 36.8242 48.071 36.9129 47.9326 36.9683C47.7959 37.022 47.6413 37.0488 47.4687 37.0488C47.332 37.0488 47.2059 37.0317 47.0903 36.9976C46.9748 36.9634 46.8706 36.9089 46.7778 36.834C46.6867 36.7575 46.6086 36.6582 46.5435 36.5361C46.4783 36.4141 46.4287 36.266 46.3945 36.0918C46.3603 35.9176 46.3433 35.7142 46.3433 35.4814V34.9395C46.3433 34.6481 46.3693 34.404 46.4214 34.207C46.4751 34.0101 46.5508 33.8522 46.6484 33.7334C46.7461 33.613 46.8633 33.5267 47 33.4746C47.1383 33.4225 47.293 33.3965 47.4639 33.3965C47.6022 33.3965 47.7292 33.4136 47.8447 33.4478C47.9619 33.4803 48.0661 33.5332 48.1572 33.6064C48.2484 33.6781 48.3257 33.7741 48.3892 33.8945C48.4543 34.0133 48.5039 34.159 48.5381 34.3315C48.5723 34.5041 48.5894 34.7067 48.5894 34.9395ZM48.1353 35.5547V34.8638C48.1353 34.7043 48.1255 34.5643 48.106 34.4438C48.0881 34.3218 48.0612 34.2176 48.0254 34.1313C47.9896 34.0451 47.944 33.9751 47.8887 33.9214C47.835 33.8677 47.7723 33.8286 47.7007 33.8042C47.6307 33.7782 47.5518 33.7651 47.4639 33.7651C47.3564 33.7651 47.2612 33.7855 47.1782 33.8262C47.0952 33.8652 47.0252 33.9279 46.9683 34.0142C46.9129 34.1004 46.8706 34.2135 46.8413 34.3535C46.812 34.4935 46.7974 34.6636 46.7974 34.8638V35.5547C46.7974 35.7142 46.8063 35.855 46.8242 35.9771C46.8437 36.0991 46.8722 36.2049 46.9097 36.2944C46.9471 36.3823 46.9927 36.4548 47.0464 36.5117C47.1001 36.5687 47.1619 36.611 47.2319 36.6387C47.3035 36.6647 47.3825 36.6777 47.4687 36.6777C47.5794 36.6777 47.6763 36.6566 47.7593 36.6143C47.8423 36.5719 47.9115 36.506 47.9668 36.4165C48.0238 36.3254 48.0661 36.209 48.0937 36.0674C48.1214 35.9242 48.1353 35.7533 48.1353 35.5547Z" fill="white"/>
<path d="M60.75 61.762L57.9861 65.5622H5.64835L2.50593 61.7215L2.92114 23.9373H60.75V61.762Z" fill="#505050" fill-opacity="0.6" stroke="black" stroke-width="3"/>
<path d="M26.375 34.2498H37.75M22 35.7424C22 35.7424 31.4283 35.7424 37.75 35.7424M26.375 37.6081C26.375 37.6081 33.3077 37.6081 37.75 37.6081M24.625 39.1006C24.625 39.1006 32.6243 39.1006 37.75 39.1006M26.375 41.0196C26.375 41.0196 33.4328 41.0196 37.875 41.0196M22 42.4588C28.3216 42.4588 37.75 42.4588 37.75 42.4588M26.375 44.4312H37.75M24.625 45.817H37.75M26.375 47.4162H37.75M22 49.1752H37.75M26.375 50.8277H37.75M24.625 52.5334H37.75M26.375 54.2393H37.75M22 55.8916H37.75M26.375 57.6508H37.75M24.625 59.2498H37.75" stroke="black"/>
<path d="M26.375 41H37.75M22 42.4925C22 42.4925 31.4284 42.4925 37.75 42.4925M26.375 44.3583C26.375 44.3583 33.3078 44.3583 37.75 44.3583M24.625 45.8507C24.625 45.8507 32.6244 45.8507 37.75 45.8507M26.3751 47.7698C26.3751 47.7698 33.4328 47.7698 37.8751 47.7698M22 49.209C28.3216 49.209 37.75 49.209 37.75 49.209M26.3751 51.1813H37.75M24.625 52.5672H37.75M26.3751 54.1664H37.75M22 55.9254H37.75M26.375 57.5779H37.75M24.625 59.2836H37.75M26.375 60.9894H37.75M22 62.6418H37.75M26.3751 64.401H37.75M24.625 66H37.75" stroke="black"/>
<path d="M2.75 18.9375L22.4375 1V4.0625L22.875 6.6875L23.75 8.43749L25.0625 9.31249L28.125 10.1875L31.625 10.625L35.5625 10.1875L37.3125 9.31249L39.0625 8.43749L39.9375 6.6875L40.375 4.0625V1L61.3749 17.1875L61.8124 19.375V22L60.9374 24.625L57.875 27.25L54.375 29.4375L49.125 31.1875L43.875 32.0625H20.6875L14.5625 31.1875L11.0625 30.3125L8.875 29.4375L7.5625 28.5625L6.25 28.125L4.9375 27.25L4.0625 26.375L3.1875 25.5L2.75 24.625L2.3125 23.75L1.875 22.875V22V20.6875C1.875 20.3375 3.1875 18.0625 2.75 18.9375Z" fill="#1E151B" stroke="black" stroke-miterlimit="1" stroke-linejoin="round"/>
</svg>
