<svg width="295" height="506" viewBox="0 0 295 506" fill="none" xmlns="http://www.w3.org/2000/svg">
<path d="M49.5623 397.375L1.18749 11.0625H11.1875L56.5623 383.813L67.9373 355.375L251.688 354.063L261.313 383.813L281.438 11.0625H292.375L268.313 406.563L280.125 442L276.188 505L41.6873 504.125L32.0623 441.563L49.5623 397.375Z" fill="#1E151B" stroke="black"/>
<path d="M1 1V12.375H11.6875L108.688 30.3125H190.875L281.438 12.375V11.0625H292.375L293.688 1H1Z" fill="#1E151B" stroke="black"/>
<path d="M139.188 30.5L151.938 354.937H166.375L159.188 30.5H139.188Z" fill="#1E151B" stroke="black"/>
<path d="M67.9373 355.375L32.0623 441.562H280.125L251.687 354.062L67.9373 355.375Z" fill="#254BBA" stroke="#254BBA"/>
<path d="M42.9559 502.63L32.9621 443.5H278.966L275.216 503.495L42.9559 502.63Z" fill="#1E151B" stroke="#254BBA" stroke-width="3"/>
<path d="M48 483H118.5L119 497.523H50.4205L48 483Z" fill="#C4C4C4"/>
<path d="M45 466L117.49 466.361L118 481H47.4712L45 466Z" fill="#C4C4C4"/>
<path d="M42 448L116.476 448.361L117 463H44.5389L42 448Z" fill="#C4C4C4"/>
<circle cx="62.5" cy="489.5" r="2" fill="#E5E5E5" stroke="black"/>
<path d="M84.418 489.21H87.094V489.51H84.418V489.21ZM84.418 490.11H87.094V490.41H84.418V490.11ZM92.366 492.096C92.062 492.096 91.81 492.032 91.61 491.904C91.41 491.772 91.254 491.6 91.142 491.388C91.03 491.172 90.95 490.936 90.902 490.68C90.858 490.424 90.836 490.17 90.836 489.918C90.836 489.666 90.864 489.41 90.92 489.15C90.98 488.89 91.072 488.652 91.196 488.436C91.32 488.216 91.48 488.04 91.676 487.908C91.872 487.772 92.11 487.704 92.39 487.704C92.682 487.704 92.924 487.77 93.116 487.902C93.312 488.034 93.466 488.208 93.578 488.424C93.694 488.636 93.776 488.87 93.824 489.126C93.872 489.382 93.896 489.636 93.896 489.888C93.896 490.136 93.868 490.39 93.812 490.65C93.756 490.91 93.668 491.15 93.548 491.37C93.428 491.586 93.27 491.762 93.074 491.898C92.882 492.03 92.646 492.096 92.366 492.096ZM92.402 491.862C92.574 491.862 92.716 491.808 92.828 491.7C92.94 491.592 93.028 491.448 93.092 491.268C93.16 491.088 93.208 490.89 93.236 490.674C93.264 490.454 93.278 490.234 93.278 490.014C93.278 489.77 93.264 489.526 93.236 489.282C93.208 489.038 93.16 488.814 93.092 488.61C93.024 488.406 92.932 488.242 92.816 488.118C92.7 487.994 92.554 487.932 92.378 487.932C92.206 487.932 92.06 487.986 91.94 488.094C91.824 488.202 91.73 488.346 91.658 488.526C91.586 488.706 91.534 488.906 91.502 489.126C91.47 489.346 91.454 489.568 91.454 489.792C91.454 489.96 91.462 490.138 91.478 490.326C91.494 490.514 91.522 490.7 91.562 490.884C91.606 491.064 91.664 491.228 91.736 491.376C91.808 491.524 91.898 491.642 92.006 491.73C92.114 491.818 92.246 491.862 92.402 491.862ZM94.8648 492.096C94.7728 492.096 94.6908 492.06 94.6188 491.988C94.5508 491.912 94.5168 491.82 94.5168 491.712C94.5168 491.604 94.5528 491.512 94.6248 491.436C94.6968 491.36 94.7788 491.322 94.8708 491.322C94.9708 491.322 95.0528 491.36 95.1168 491.436C95.1848 491.512 95.2188 491.604 95.2188 491.712C95.2188 491.82 95.1828 491.912 95.1108 491.988C95.0388 492.06 94.9568 492.096 94.8648 492.096ZM98.0514 491.346C98.0514 491.426 98.0494 491.502 98.0454 491.574C98.0454 491.646 98.0394 491.712 98.0274 491.772C98.1074 491.768 98.1854 491.766 98.2614 491.766C98.3374 491.762 98.4134 491.758 98.4894 491.754V492H96.9834V491.802H97.0254C97.1614 491.79 97.2634 491.752 97.3314 491.688C97.3994 491.624 97.4454 491.538 97.4694 491.43C97.4934 491.322 97.5054 491.194 97.5054 491.046V490.842H95.6814V490.548L97.8534 487.704H98.0514V490.482L98.6574 490.488V490.842H98.0514V491.346ZM97.4934 488.556L96.0774 490.452L97.5054 490.47V488.556H97.4934ZM100.84 490.29V489.87H102.97V490.266L100.84 490.29ZM105.393 492V491.802C105.533 491.794 105.639 491.762 105.711 491.706C105.787 491.65 105.839 491.572 105.867 491.472C105.899 491.372 105.915 491.254 105.915 491.118L105.897 488.286L105.177 488.748L105.057 488.574L106.227 487.704H106.431L106.437 491.346C106.437 491.422 106.435 491.496 106.431 491.568C106.431 491.64 106.427 491.704 106.419 491.76C106.503 491.756 106.587 491.752 106.671 491.748C106.755 491.744 106.839 491.74 106.923 491.736V492H105.393ZM107.867 492.096C107.775 492.096 107.693 492.06 107.621 491.988C107.553 491.912 107.519 491.82 107.519 491.712C107.519 491.604 107.555 491.512 107.627 491.436C107.699 491.36 107.781 491.322 107.873 491.322C107.973 491.322 108.055 491.36 108.119 491.436C108.187 491.512 108.221 491.604 108.221 491.712C108.221 491.82 108.185 491.912 108.113 491.988C108.041 492.06 107.959 492.096 107.867 492.096ZM108.887 492C108.887 491.788 108.919 491.6 108.983 491.436C109.051 491.272 109.141 491.122 109.253 490.986C109.365 490.846 109.491 490.712 109.631 490.584C109.775 490.452 109.921 490.314 110.069 490.17C110.329 489.922 110.517 489.692 110.633 489.48C110.749 489.268 110.807 489.064 110.807 488.868C110.807 488.716 110.785 488.57 110.741 488.43C110.701 488.286 110.627 488.168 110.519 488.076C110.411 487.984 110.261 487.938 110.069 487.938C109.905 487.938 109.759 487.98 109.631 488.064C109.503 488.144 109.417 488.244 109.373 488.364C109.413 488.404 109.441 488.448 109.457 488.496C109.473 488.54 109.481 488.584 109.481 488.628C109.481 488.664 109.471 488.704 109.451 488.748C109.435 488.792 109.405 488.83 109.361 488.862C109.317 488.894 109.259 488.91 109.187 488.91C109.099 488.906 109.031 488.872 108.983 488.808C108.935 488.744 108.911 488.668 108.911 488.58C108.911 488.496 108.937 488.404 108.989 488.304C109.041 488.2 109.119 488.104 109.223 488.016C109.331 487.924 109.463 487.85 109.619 487.794C109.775 487.734 109.957 487.704 110.165 487.704C110.325 487.704 110.479 487.724 110.627 487.764C110.779 487.8 110.915 487.86 111.035 487.944C111.155 488.028 111.249 488.14 111.317 488.28C111.389 488.416 111.425 488.586 111.425 488.79C111.425 488.89 111.403 488.998 111.359 489.114C111.319 489.23 111.251 489.356 111.155 489.492C111.063 489.624 110.943 489.766 110.795 489.918C110.647 490.066 110.465 490.228 110.249 490.404C109.977 490.628 109.753 490.84 109.577 491.04C109.405 491.236 109.305 491.404 109.277 491.544L110.339 491.574C110.535 491.578 110.707 491.578 110.855 491.574C111.007 491.57 111.125 491.54 111.209 491.484C111.297 491.424 111.341 491.316 111.341 491.16H111.521L111.485 492H108.887Z" fill="black"/>
<path d="M74.7718 493.203H74.1695H74L76.2034 488.542L75.9492 487.61L75.8644 487.356L75.7797 487.102L75.6102 486.763L75.4407 486.678H75.1864L74.9322 486.763L74.678 486.932L74.5932 487.102L74.5085 487.271L74.4237 487.525H74.339V487.441V487.271V487.102V486.932L74.4237 486.678L74.5085 486.508L74.5932 486.339L74.7627 486.169L74.9322 486.085L75.1864 486H75.4407L75.6949 486.169L75.9492 486.424L76.1186 486.763L76.2881 487.186L77.1356 490.831L77.4746 492.017L77.6017 492.229L77.7288 492.356L77.9407 492.525L78.2373 492.61L78.4915 492.525L78.7458 492.186L78.8305 492.017L78.9153 491.847H79L78.9153 492.356L78.8305 492.695L78.5763 493.034L78.322 493.203H77.9831L77.4731 492.946L77.2158 492.689L77.0872 492.432L76.444 489.473L74.7718 493.203Z" fill="black"/>
<circle cx="57.5" cy="473.5" r="2" fill="#940000" stroke="black"/>
<path d="M78.5713 473.21H81.2473V473.51H78.5713V473.21ZM78.5713 474.11H81.2473V474.41H78.5713V474.11ZM86.5193 476.096C86.2153 476.096 85.9633 476.032 85.7633 475.904C85.5633 475.772 85.4073 475.6 85.2953 475.388C85.1833 475.172 85.1033 474.936 85.0553 474.68C85.0113 474.424 84.9893 474.17 84.9893 473.918C84.9893 473.666 85.0173 473.41 85.0733 473.15C85.1333 472.89 85.2253 472.652 85.3493 472.436C85.4733 472.216 85.6333 472.04 85.8293 471.908C86.0253 471.772 86.2633 471.704 86.5433 471.704C86.8353 471.704 87.0773 471.77 87.2693 471.902C87.4653 472.034 87.6193 472.208 87.7313 472.424C87.8473 472.636 87.9293 472.87 87.9773 473.126C88.0253 473.382 88.0493 473.636 88.0493 473.888C88.0493 474.136 88.0213 474.39 87.9653 474.65C87.9093 474.91 87.8213 475.15 87.7013 475.37C87.5813 475.586 87.4233 475.762 87.2273 475.898C87.0353 476.03 86.7993 476.096 86.5193 476.096ZM86.5553 475.862C86.7273 475.862 86.8693 475.808 86.9813 475.7C87.0933 475.592 87.1813 475.448 87.2453 475.268C87.3133 475.088 87.3613 474.89 87.3893 474.674C87.4173 474.454 87.4313 474.234 87.4313 474.014C87.4313 473.77 87.4173 473.526 87.3893 473.282C87.3613 473.038 87.3133 472.814 87.2453 472.61C87.1773 472.406 87.0853 472.242 86.9693 472.118C86.8533 471.994 86.7073 471.932 86.5313 471.932C86.3593 471.932 86.2133 471.986 86.0933 472.094C85.9773 472.202 85.8833 472.346 85.8113 472.526C85.7393 472.706 85.6873 472.906 85.6553 473.126C85.6233 473.346 85.6073 473.568 85.6073 473.792C85.6073 473.96 85.6153 474.138 85.6313 474.326C85.6473 474.514 85.6753 474.7 85.7153 474.884C85.7593 475.064 85.8173 475.228 85.8893 475.376C85.9613 475.524 86.0513 475.642 86.1593 475.73C86.2673 475.818 86.3993 475.862 86.5553 475.862ZM89.0181 476.096C88.9261 476.096 88.8441 476.06 88.7721 475.988C88.7041 475.912 88.6701 475.82 88.6701 475.712C88.6701 475.604 88.7061 475.512 88.7781 475.436C88.8501 475.36 88.9321 475.322 89.0241 475.322C89.1241 475.322 89.2061 475.36 89.2701 475.436C89.3381 475.512 89.3721 475.604 89.3721 475.712C89.3721 475.82 89.3361 475.912 89.2641 475.988C89.1921 476.06 89.1101 476.096 89.0181 476.096ZM92.2047 475.346C92.2047 475.426 92.2027 475.502 92.1987 475.574C92.1987 475.646 92.1927 475.712 92.1807 475.772C92.2607 475.768 92.3387 475.766 92.4147 475.766C92.4907 475.762 92.5667 475.758 92.6427 475.754V476H91.1367V475.802H91.1787C91.3147 475.79 91.4167 475.752 91.4847 475.688C91.5527 475.624 91.5987 475.538 91.6227 475.43C91.6467 475.322 91.6587 475.194 91.6587 475.046V474.842H89.8347V474.548L92.0067 471.704H92.2047V474.482L92.8107 474.488V474.842H92.2047V475.346ZM91.6467 472.556L90.2307 474.452L91.6587 474.47V472.556H91.6467ZM94.9928 474.29V473.87H97.1228V474.266L94.9928 474.29ZM100.969 476.096C100.665 476.096 100.413 476.032 100.213 475.904C100.013 475.772 99.8565 475.6 99.7445 475.388C99.6325 475.172 99.5525 474.936 99.5045 474.68C99.4605 474.424 99.4385 474.17 99.4385 473.918C99.4385 473.666 99.4665 473.41 99.5225 473.15C99.5825 472.89 99.6745 472.652 99.7985 472.436C99.9225 472.216 100.083 472.04 100.279 471.908C100.475 471.772 100.713 471.704 100.993 471.704C101.285 471.704 101.527 471.77 101.719 471.902C101.915 472.034 102.069 472.208 102.181 472.424C102.297 472.636 102.379 472.87 102.427 473.126C102.475 473.382 102.499 473.636 102.499 473.888C102.499 474.136 102.471 474.39 102.415 474.65C102.359 474.91 102.271 475.15 102.151 475.37C102.031 475.586 101.873 475.762 101.677 475.898C101.485 476.03 101.249 476.096 100.969 476.096ZM101.005 475.862C101.177 475.862 101.319 475.808 101.431 475.7C101.543 475.592 101.631 475.448 101.695 475.268C101.763 475.088 101.811 474.89 101.839 474.674C101.867 474.454 101.881 474.234 101.881 474.014C101.881 473.77 101.867 473.526 101.839 473.282C101.811 473.038 101.763 472.814 101.695 472.61C101.627 472.406 101.535 472.242 101.419 472.118C101.303 471.994 101.157 471.932 100.981 471.932C100.809 471.932 100.663 471.986 100.543 472.094C100.427 472.202 100.333 472.346 100.261 472.526C100.189 472.706 100.137 472.906 100.105 473.126C100.073 473.346 100.057 473.568 100.057 473.792C100.057 473.96 100.065 474.138 100.081 474.326C100.097 474.514 100.125 474.7 100.165 474.884C100.209 475.064 100.267 475.228 100.339 475.376C100.411 475.524 100.501 475.642 100.609 475.73C100.717 475.818 100.849 475.862 101.005 475.862ZM103.467 476.096C103.375 476.096 103.293 476.06 103.221 475.988C103.153 475.912 103.119 475.82 103.119 475.712C103.119 475.604 103.155 475.512 103.227 475.436C103.299 475.36 103.381 475.322 103.473 475.322C103.573 475.322 103.655 475.36 103.719 475.436C103.787 475.512 103.821 475.604 103.821 475.712C103.821 475.82 103.785 475.912 103.713 475.988C103.641 476.06 103.559 476.096 103.467 476.096ZM105.754 476.096C105.494 476.096 105.282 476.058 105.118 475.982C104.958 475.902 104.842 475.804 104.77 475.688C104.698 475.572 104.662 475.462 104.662 475.358C104.662 475.27 104.684 475.196 104.728 475.136C104.772 475.076 104.838 475.044 104.926 475.04C105.022 475.036 105.09 475.066 105.13 475.13C105.174 475.19 105.196 475.246 105.196 475.298C105.196 475.338 105.188 475.38 105.172 475.424C105.16 475.464 105.14 475.504 105.112 475.544C105.14 475.632 105.2 475.708 105.292 475.772C105.388 475.836 105.532 475.868 105.724 475.868C105.908 475.868 106.062 475.824 106.186 475.736C106.31 475.648 106.41 475.532 106.486 475.388C106.562 475.24 106.62 475.08 106.66 474.908C106.7 474.732 106.726 474.558 106.738 474.386C106.754 474.214 106.762 474.06 106.762 473.924C106.662 474.06 106.528 474.178 106.36 474.278C106.192 474.378 105.99 474.428 105.754 474.428C105.514 474.428 105.312 474.388 105.148 474.308C104.988 474.224 104.86 474.116 104.764 473.984C104.672 473.852 104.604 473.708 104.56 473.552C104.52 473.396 104.5 473.242 104.5 473.09C104.5 472.83 104.558 472.596 104.674 472.388C104.79 472.176 104.954 472.01 105.166 471.89C105.378 471.766 105.628 471.704 105.916 471.704C106.2 471.704 106.432 471.758 106.612 471.866C106.796 471.974 106.94 472.126 107.044 472.322C107.148 472.514 107.22 472.74 107.26 473C107.304 473.26 107.326 473.542 107.326 473.846C107.326 474.022 107.314 474.212 107.29 474.416C107.27 474.616 107.228 474.816 107.164 475.016C107.104 475.212 107.016 475.392 106.9 475.556C106.784 475.716 106.632 475.846 106.444 475.946C106.256 476.046 106.026 476.096 105.754 476.096ZM105.88 474.158C106.008 474.158 106.13 474.128 106.246 474.068C106.366 474.004 106.472 473.922 106.564 473.822C106.656 473.722 106.72 473.614 106.756 473.498C106.744 473.31 106.722 473.124 106.69 472.94C106.658 472.756 106.608 472.588 106.54 472.436C106.476 472.284 106.39 472.162 106.282 472.07C106.174 471.978 106.038 471.932 105.874 471.932C105.702 471.932 105.558 471.982 105.442 472.082C105.326 472.178 105.238 472.304 105.178 472.46C105.122 472.616 105.094 472.782 105.094 472.958C105.094 473.07 105.104 473.196 105.124 473.336C105.144 473.472 105.18 473.604 105.232 473.732C105.288 473.856 105.368 473.958 105.472 474.038C105.576 474.118 105.712 474.158 105.88 474.158Z" fill="black"/>
<path d="M69.7718 477.203H69.1695H69L71.2034 472.542L70.9492 471.61L70.8644 471.356L70.7797 471.102L70.6102 470.763L70.4407 470.678H70.1864L69.9322 470.763L69.678 470.932L69.5932 471.102L69.5085 471.271L69.4237 471.525H69.339V471.441V471.271V471.102V470.932L69.4237 470.678L69.5085 470.508L69.5932 470.339L69.7627 470.169L69.9322 470.085L70.1864 470H70.4407L70.6949 470.169L70.9492 470.424L71.1186 470.763L71.2881 471.186L72.1356 474.831L72.4746 476.017L72.6017 476.229L72.7288 476.356L72.9407 476.525L73.2373 476.61L73.4915 476.525L73.7458 476.186L73.8305 476.017L73.9153 475.847H74L73.9153 476.356L73.8305 476.695L73.5763 477.034L73.322 477.203H72.9831L72.4731 476.946L72.2158 476.689L72.0872 476.432L71.444 473.473L69.7718 477.203Z" fill="black"/>
<path d="M69.0966 456.182L69.3148 456.4V459.455C69.242 459.745 69.0602 459.927 68.7693 460L68.442 459.127V456.836L69.0966 456.182ZM68.5511 460H65.2784C64.9875 459.927 64.8057 459.745 64.733 459.455L65.6057 459.127H68.2239L68.5511 460ZM64.733 459.236V456.4L64.9511 456.182L65.6057 456.836V458.909L64.733 459.236ZM68.2239 453.018H65.6166L64.7439 452.691C64.8166 452.4 64.9984 452.218 65.2893 452.145H68.5511L68.2239 453.018ZM65.6057 453.236V455.309L64.9511 455.964L64.733 455.745V452.909L65.6057 453.236ZM68.442 455.309V453.018L68.7693 452.145C69.0602 452.218 69.242 452.4 69.3148 452.691V455.745L69.0966 455.964L68.442 455.309ZM75.3685 456.182L75.5866 456.4V459.455C75.5139 459.745 75.3321 459.927 75.0412 460L74.7139 459.127V456.836L75.3685 456.182ZM74.823 460H71.5503C71.2594 459.927 71.0776 459.745 71.0048 459.455L71.8776 459.127H74.4957L74.823 460ZM71.0048 459.236V456.4L71.223 456.182L71.8776 456.836V458.909L71.0048 459.236ZM74.4957 453.018H71.8885L71.0157 452.691C71.0885 452.4 71.2703 452.218 71.5612 452.145H74.823L74.4957 453.018ZM71.8776 453.236V455.309L71.223 455.964L71.0048 455.745V452.909L71.8776 453.236ZM74.7139 455.309V453.018L75.0412 452.145C75.3321 452.218 75.5139 452.4 75.5866 452.691V455.745L75.3685 455.964L74.7139 455.309ZM78.1494 460.873L77.7131 461.309L77.2767 460.873V459.127H78.1494V460.873ZM80.5 456.182L80.7182 456.4V459.455C80.6455 459.745 80.4636 459.927 80.1727 460L79.8455 459.127V456.836L80.5 456.182ZM79.8455 455.309V453.018L80.1727 452.145C80.4636 452.218 80.6455 452.4 80.7182 452.691V455.745L80.5 455.964L79.8455 455.309ZM86.1233 455.636L86.5597 456.073L86.1233 456.509H83.2869L82.8506 456.073L83.2869 455.636H86.1233ZM86.5597 460H82.9597C82.6687 459.927 82.4869 459.745 82.4142 459.455L83.2869 459.127H86.2324L86.5597 460ZM82.4142 459.236V456.4L82.6324 456.182L83.2869 456.836V458.909L82.4142 459.236ZM85.9051 453.018H83.2978L82.4251 452.691C82.4978 452.4 82.6797 452.218 82.9706 452.145H86.2324L85.9051 453.018ZM86.1233 455.309V453.018L86.4506 452.145C86.7415 452.218 86.9233 452.4 86.996 452.691V455.745L86.7778 455.964L86.1233 455.309ZM92.3952 455.636L92.8315 456.073L92.3952 456.509H89.5588L89.1224 456.073L89.5588 455.636H92.3952ZM93.0497 456.182L93.2679 456.4V459.455C93.1952 459.745 93.0134 459.927 92.7224 460L92.3952 459.127V456.836L93.0497 456.182ZM89.5588 452.909V455.309L88.9043 455.964L88.6861 455.745V452.582L89.5588 452.909ZM92.3952 455.309V453.018L92.7224 452.145C93.0134 452.218 93.1952 452.4 93.2679 452.691V455.745L93.0497 455.964L92.3952 455.309Z" fill="black"/>
<path d="M209.182 460H207.376V459.772C207.452 459.732 207.532 459.696 207.616 459.664C207.7 459.632 207.784 459.61 207.868 459.598V456.202C207.788 456.182 207.704 456.16 207.616 456.136C207.528 456.108 207.448 456.072 207.376 456.028V455.8H209.182V456.028C209.122 456.064 209.054 456.098 208.978 456.13C208.902 456.162 208.82 456.186 208.732 456.202V458.482L208.672 458.95L208.966 458.458L210.478 456.346V456.202C210.29 456.158 210.132 456.1 210.004 456.028V455.8H211.81V456.028C211.742 456.072 211.664 456.108 211.576 456.136C211.492 456.16 211.406 456.182 211.318 456.202V459.598C211.41 459.614 211.496 459.638 211.576 459.67C211.66 459.698 211.738 459.732 211.81 459.772V460H210.004V459.772C210.06 459.744 210.126 459.714 210.202 459.682C210.282 459.646 210.366 459.618 210.454 459.598V457.324L210.514 456.85L210.244 457.324L208.708 459.466V459.598C208.8 459.618 208.886 459.644 208.966 459.676C209.046 459.708 209.118 459.74 209.182 459.772V460ZM213.696 460H212.106V459.766C212.162 459.734 212.224 459.708 212.292 459.688C212.36 459.664 212.43 459.642 212.502 459.622V457.378C212.43 457.358 212.36 457.338 212.292 457.318C212.224 457.294 212.162 457.266 212.106 457.234V457H213.696V457.234C213.604 457.29 213.494 457.338 213.366 457.378V458.314H214.482V457.378C214.366 457.354 214.256 457.306 214.152 457.234V457H215.742V457.234C215.634 457.302 215.502 457.35 215.346 457.378V459.622C215.418 459.638 215.488 459.656 215.556 459.676C215.624 459.696 215.686 459.726 215.742 459.766V460H214.152V459.766C214.256 459.69 214.366 459.642 214.482 459.622V458.656H213.366V459.622C213.434 459.638 213.494 459.658 213.546 459.682C213.602 459.706 213.652 459.734 213.696 459.766V460ZM218.394 460H216.69V459.766C216.75 459.734 216.818 459.706 216.894 459.682C216.97 459.658 217.042 459.638 217.11 459.622V457.342H216.672L216.408 458.17H216.156C216.136 458.086 216.116 457.992 216.096 457.888C216.08 457.784 216.066 457.68 216.054 457.576C216.042 457.468 216.03 457.364 216.018 457.264C216.01 457.164 216.006 457.076 216.006 457H219.078C219.078 457.072 219.074 457.158 219.066 457.258C219.058 457.358 219.046 457.462 219.03 457.57C219.018 457.674 219.002 457.78 218.982 457.888C218.966 457.992 218.948 458.086 218.928 458.17H218.676L218.412 457.342H217.974V459.622C218.066 459.646 218.144 459.668 218.208 459.688C218.272 459.708 218.334 459.734 218.394 459.766V460ZM222.049 459.496C222.017 459.564 221.965 459.634 221.893 459.706C221.825 459.774 221.739 459.836 221.635 459.892C221.535 459.944 221.417 459.986 221.281 460.018C221.149 460.054 221.005 460.072 220.849 460.072C220.601 460.072 220.381 460.036 220.189 459.964C219.997 459.888 219.837 459.782 219.709 459.646C219.581 459.506 219.483 459.34 219.415 459.148C219.351 458.956 219.319 458.74 219.319 458.5C219.319 457.988 219.453 457.598 219.721 457.33C219.989 457.062 220.361 456.928 220.837 456.928C221.041 456.928 221.231 456.956 221.407 457.012C221.587 457.068 221.735 457.16 221.851 457.288C221.971 457.416 222.053 457.584 222.097 457.792C222.145 458 222.143 458.254 222.091 458.554H220.249C220.253 458.87 220.333 459.122 220.489 459.31C220.649 459.498 220.883 459.592 221.191 459.592C221.323 459.592 221.459 459.572 221.599 459.532C221.743 459.492 221.855 459.44 221.935 459.376L222.049 459.496ZM220.813 457.27C220.733 457.27 220.661 457.284 220.597 457.312C220.537 457.34 220.483 457.392 220.435 457.468C220.391 457.54 220.355 457.64 220.327 457.768C220.299 457.892 220.279 458.05 220.267 458.242H221.233C221.261 457.93 221.243 457.69 221.179 457.522C221.115 457.354 220.993 457.27 220.813 457.27ZM224.119 460H222.529V459.766C222.585 459.734 222.647 459.708 222.715 459.688C222.783 459.664 222.853 459.642 222.925 459.622V457.378C222.853 457.358 222.783 457.338 222.715 457.318C222.647 457.294 222.585 457.266 222.529 457.234V457H224.119V457.234C224.027 457.29 223.917 457.338 223.789 457.378V458.314H224.905V457.378C224.789 457.354 224.679 457.306 224.575 457.234V457H226.165V457.234C226.057 457.302 225.925 457.35 225.769 457.378V459.622C225.841 459.638 225.911 459.656 225.979 459.676C226.047 459.696 226.109 459.726 226.165 459.766V460H224.575V459.766C224.679 459.69 224.789 459.642 224.905 459.622V458.656H223.789V459.622C223.857 459.638 223.917 459.658 223.969 459.682C224.025 459.706 224.075 459.734 224.119 459.766V460ZM229.076 459.514C229.048 459.594 229.002 459.668 228.938 459.736C228.874 459.8 228.796 459.858 228.704 459.91C228.616 459.962 228.514 460.002 228.398 460.03C228.286 460.058 228.168 460.072 228.044 460.072C227.78 460.072 227.552 460.036 227.36 459.964C227.172 459.888 227.016 459.782 226.892 459.646C226.768 459.506 226.676 459.34 226.616 459.148C226.556 458.952 226.526 458.736 226.526 458.5C226.526 457.992 226.664 457.604 226.94 457.336C227.22 457.064 227.616 456.928 228.128 456.928C228.324 456.928 228.504 456.95 228.668 456.994C228.832 457.034 228.968 457.082 229.076 457.138C229.068 457.206 229.056 457.282 229.04 457.366C229.028 457.446 229.012 457.528 228.992 457.612C228.976 457.692 228.956 457.772 228.932 457.852C228.908 457.928 228.884 457.992 228.86 458.044H228.566L228.314 457.33C228.286 457.31 228.256 457.296 228.224 457.288C228.192 457.276 228.144 457.27 228.08 457.27C227.976 457.27 227.886 457.29 227.81 457.33C227.734 457.366 227.668 457.43 227.612 457.522C227.56 457.614 227.52 457.736 227.492 457.888C227.468 458.04 227.456 458.228 227.456 458.452C227.456 458.616 227.474 458.768 227.51 458.908C227.546 459.044 227.6 459.164 227.672 459.268C227.748 459.368 227.842 459.448 227.954 459.508C228.066 459.564 228.198 459.592 228.35 459.592C228.49 459.592 228.612 459.572 228.716 459.532C228.82 459.492 228.908 459.444 228.98 459.388L229.076 459.514ZM229.42 457H231.016V457.234C230.972 457.258 230.92 457.282 230.86 457.306C230.804 457.33 230.736 457.354 230.656 457.378V458.728L230.59 459.286H230.62L230.854 458.836L231.952 457H233.086V457.234C232.958 457.306 232.826 457.354 232.69 457.378V459.622C232.766 459.642 232.838 459.664 232.906 459.688C232.974 459.708 233.034 459.734 233.086 459.766V460H231.49V459.766C231.602 459.702 231.722 459.654 231.85 459.622V458.206L231.91 457.732H231.88L231.652 458.182L230.566 460H229.42V459.766C229.488 459.734 229.554 459.708 229.618 459.688C229.682 459.664 229.748 459.642 229.816 459.622V457.378C229.66 457.354 229.528 457.306 229.42 457.234V457ZM236.494 459.124C236.494 459.284 236.46 459.422 236.392 459.538C236.324 459.65 236.23 459.742 236.11 459.814C235.99 459.886 235.848 459.94 235.684 459.976C235.524 460.008 235.352 460.024 235.168 460.024C235.04 460.024 234.93 460.022 234.838 460.018C234.746 460.018 234.666 460.016 234.598 460.012C234.53 460.008 234.47 460.004 234.418 460C234.37 460 234.324 460 234.28 460H233.434V459.766C233.558 459.702 233.69 459.654 233.83 459.622V457.378C233.678 457.35 233.546 457.302 233.434 457.234V457H234.244C234.436 457 234.606 456.996 234.754 456.988C234.902 456.98 235.05 456.976 235.198 456.976C235.578 456.976 235.866 457.03 236.062 457.138C236.262 457.242 236.362 457.426 236.362 457.69C236.362 457.786 236.34 457.872 236.296 457.948C236.256 458.024 236.2 458.09 236.128 458.146C236.06 458.202 235.984 458.248 235.9 458.284C235.816 458.32 235.732 458.346 235.648 458.362C235.76 458.37 235.866 458.392 235.966 458.428C236.07 458.464 236.16 458.514 236.236 458.578C236.316 458.642 236.378 458.72 236.422 458.812C236.47 458.9 236.494 459.004 236.494 459.124ZM234.694 459.658C234.75 459.67 234.81 459.678 234.874 459.682C234.942 459.682 235 459.682 235.048 459.682C235.228 459.682 235.364 459.636 235.456 459.544C235.548 459.452 235.594 459.318 235.594 459.142C235.594 458.97 235.54 458.842 235.432 458.758C235.328 458.67 235.19 458.626 235.018 458.626H234.694V459.658ZM234.694 458.368L235.228 458.308C235.292 458.268 235.354 458.204 235.414 458.116C235.474 458.024 235.504 457.912 235.504 457.78C235.504 457.472 235.326 457.318 234.97 457.318C234.926 457.318 234.88 457.32 234.832 457.324C234.784 457.324 234.738 457.33 234.694 457.342V458.368ZM238.463 460H236.873V459.766C236.929 459.734 236.991 459.708 237.059 459.688C237.127 459.664 237.197 459.642 237.269 459.622V457.378C237.197 457.358 237.127 457.338 237.059 457.318C236.991 457.294 236.929 457.266 236.873 457.234V457H238.463V457.234C238.371 457.29 238.261 457.338 238.133 457.378V458.314H239.249V457.378C239.133 457.354 239.023 457.306 238.919 457.234V457H240.509V457.234C240.401 457.302 240.269 457.35 240.113 457.378V459.622C240.185 459.638 240.255 459.656 240.323 459.676C240.391 459.696 240.453 459.726 240.509 459.766V460H238.919V459.766C239.023 459.69 239.133 459.642 239.249 459.622V458.656H238.133V459.622C238.201 459.638 238.261 459.658 238.313 459.682C238.369 459.706 238.419 459.734 238.463 459.766V460ZM240.87 458.5C240.87 458.256 240.906 458.038 240.978 457.846C241.054 457.65 241.16 457.484 241.296 457.348C241.436 457.212 241.604 457.108 241.8 457.036C241.996 456.964 242.218 456.928 242.466 456.928C242.746 456.928 242.986 456.968 243.186 457.048C243.39 457.124 243.556 457.232 243.684 457.372C243.816 457.508 243.912 457.674 243.972 457.87C244.032 458.062 244.062 458.272 244.062 458.5C244.062 458.744 244.026 458.964 243.954 459.16C243.882 459.352 243.776 459.516 243.636 459.652C243.5 459.788 243.332 459.892 243.132 459.964C242.936 460.036 242.714 460.072 242.466 460.072C242.194 460.072 241.958 460.034 241.758 459.958C241.558 459.878 241.392 459.77 241.26 459.634C241.128 459.494 241.03 459.328 240.966 459.136C240.902 458.94 240.87 458.728 240.87 458.5ZM241.8 458.5C241.8 458.68 241.81 458.846 241.83 458.998C241.854 459.146 241.894 459.272 241.95 459.376C242.006 459.48 242.082 459.562 242.178 459.622C242.274 459.678 242.398 459.706 242.55 459.706C242.638 459.706 242.718 459.686 242.79 459.646C242.862 459.602 242.924 459.534 242.976 459.442C243.028 459.346 243.066 459.222 243.09 459.07C243.118 458.914 243.132 458.724 243.132 458.5C243.132 458.316 243.12 458.15 243.096 458.002C243.076 457.854 243.038 457.728 242.982 457.624C242.93 457.52 242.858 457.44 242.766 457.384C242.674 457.324 242.558 457.294 242.418 457.294C242.314 457.294 242.224 457.316 242.148 457.36C242.072 457.4 242.008 457.468 241.956 457.564C241.904 457.656 241.864 457.78 241.836 457.936C241.812 458.088 241.8 458.276 241.8 458.5ZM246.982 459.514C246.954 459.594 246.908 459.668 246.844 459.736C246.78 459.8 246.702 459.858 246.61 459.91C246.522 459.962 246.42 460.002 246.304 460.03C246.192 460.058 246.074 460.072 245.95 460.072C245.686 460.072 245.458 460.036 245.266 459.964C245.078 459.888 244.922 459.782 244.798 459.646C244.674 459.506 244.582 459.34 244.522 459.148C244.462 458.952 244.432 458.736 244.432 458.5C244.432 457.992 244.57 457.604 244.846 457.336C245.126 457.064 245.522 456.928 246.034 456.928C246.23 456.928 246.41 456.95 246.574 456.994C246.738 457.034 246.874 457.082 246.982 457.138C246.974 457.206 246.962 457.282 246.946 457.366C246.934 457.446 246.918 457.528 246.898 457.612C246.882 457.692 246.862 457.772 246.838 457.852C246.814 457.928 246.79 457.992 246.766 458.044H246.472L246.22 457.33C246.192 457.31 246.162 457.296 246.13 457.288C246.098 457.276 246.05 457.27 245.986 457.27C245.882 457.27 245.792 457.29 245.716 457.33C245.64 457.366 245.574 457.43 245.518 457.522C245.466 457.614 245.426 457.736 245.398 457.888C245.374 458.04 245.362 458.228 245.362 458.452C245.362 458.616 245.38 458.768 245.416 458.908C245.452 459.044 245.506 459.164 245.578 459.268C245.654 459.368 245.748 459.448 245.86 459.508C245.972 459.564 246.104 459.592 246.256 459.592C246.396 459.592 246.518 459.572 246.622 459.532C246.726 459.492 246.814 459.444 246.886 459.388L246.982 459.514ZM249.648 460H247.944V459.766C248.004 459.734 248.072 459.706 248.148 459.682C248.224 459.658 248.296 459.638 248.364 459.622V457.342H247.926L247.662 458.17H247.41C247.39 458.086 247.37 457.992 247.35 457.888C247.334 457.784 247.32 457.68 247.308 457.576C247.296 457.468 247.284 457.364 247.272 457.264C247.264 457.164 247.26 457.076 247.26 457H250.332C250.332 457.072 250.328 457.158 250.32 457.258C250.312 457.358 250.3 457.462 250.284 457.57C250.272 457.674 250.256 457.78 250.236 457.888C250.22 457.992 250.202 458.086 250.182 458.17H249.93L249.666 457.342H249.228V459.622C249.32 459.646 249.398 459.668 249.462 459.688C249.526 459.708 249.588 459.734 249.648 459.766V460ZM251.856 458.194C251.924 458.186 252.014 458.176 252.126 458.164C252.238 458.152 252.374 458.146 252.534 458.146C252.862 458.146 253.124 458.222 253.32 458.374C253.516 458.522 253.614 458.746 253.614 459.046C253.614 459.206 253.582 459.348 253.518 459.472C253.454 459.592 253.366 459.694 253.254 459.778C253.142 459.858 253.008 459.92 252.852 459.964C252.7 460.004 252.534 460.024 252.354 460.024C252.298 460.024 252.218 460.022 252.114 460.018C252.014 460.018 251.904 460.016 251.784 460.012C251.668 460.008 251.552 460.004 251.436 460C251.324 460 251.23 460 251.154 460H250.596V459.766C250.656 459.734 250.72 459.708 250.788 459.688C250.856 459.664 250.924 459.642 250.992 459.622V457.378C250.916 457.362 250.846 457.342 250.782 457.318C250.718 457.294 250.656 457.266 250.596 457.234V457H252.216V457.234C252.12 457.29 252 457.338 251.856 457.378V458.194ZM251.856 459.658C251.896 459.666 251.938 459.672 251.982 459.676C252.03 459.68 252.076 459.682 252.12 459.682C252.204 459.682 252.28 459.672 252.348 459.652C252.416 459.632 252.474 459.598 252.522 459.55C252.57 459.498 252.606 459.432 252.63 459.352C252.658 459.268 252.672 459.164 252.672 459.04C252.672 458.932 252.658 458.844 252.63 458.776C252.606 458.704 252.57 458.648 252.522 458.608C252.478 458.564 252.424 458.534 252.36 458.518C252.3 458.498 252.234 458.488 252.162 458.488C252.114 458.488 252.062 458.49 252.006 458.494C251.954 458.498 251.904 458.506 251.856 458.518V459.658Z" fill="white"/>
<path d="M256 492C256 485.37 253.366 479.011 248.678 474.322C243.989 469.634 237.63 467 231 467C224.37 467 218.011 469.634 213.322 474.322C208.634 479.011 206 485.37 206 492H231H256Z" fill="#B6B6B6"/>
<path d="M231 492C231.139 492.918 230.139 486.322 230.139 486.322L208.395 481.322C206.833 484.63 206 488.272 206 492H231Z" fill="#E5E5E5"/>
<path d="M251 493C251 487.696 248.893 482.609 245.142 478.858C241.391 475.107 236.304 473 231 473C225.696 473 220.609 475.107 216.858 478.858C213.107 482.609 211 487.696 211 493H231H251Z" fill="#1E151B"/>
<rect x="211" y="492" width="40" height="3" fill="#1E151B"/>
</svg>
