<svg width="20" height="28" viewBox="0 0 20 28" fill="none" xmlns="http://www.w3.org/2000/svg">
<path d="M3 28H0.658823H0L8.5647 9.88235L7.57647 6.25882L7.24706 5.27059L6.91765 4.28235L6.25882 2.96471L5.6 2.63529H4.61176L3.62353 2.96471L2.63529 3.62353L2.30588 4.28235L1.97647 4.94118L1.64706 5.92941H1.31765V5.6V4.94118V4.28235V3.62353L1.64706 2.63529L1.97647 1.97647L2.30588 1.31765L2.96471 0.658824L3.62353 0.329412L4.61176 0H5.6L6.58823 0.658824L7.57647 1.64706L8.23529 2.96471L8.89412 4.61176L12.1882 18.7765L13.5059 23.3882L14 24.2118L14.4941 24.7059L15.3176 25.3647L16.4706 25.6941L17.4588 25.3647L18.4471 24.0471L18.7765 23.3882L19.1059 22.7294H19.4353L19.1059 24.7059L18.7765 26.0235L17.7882 27.3412L16.8 28H15.4824L13.5 27L12.5 26L12 25L9.5 13.5L3 28Z" fill="black"/>
</svg>
