<svg width="370" height="92" viewBox="0 0 370 92" fill="none" xmlns="http://www.w3.org/2000/svg">
<path d="M99.3 33.6C99.3 26.7 103.9 22.8 110.6 22.8C113.8 22.8 116.2 23.5 116.2 23.5V27.3C116.2 27.3 114.3 24.6 110.7 24.6C106.3 24.6 103.7 28 103.7 33.4C103.7 38.6 106.3 41.9 110.8 41.9C114.6 41.9 116.5 39.8 116.5 39.8L116.8 42.3C116.8 42.3 114.4 43.7 109.7 43.7C103.4 43.8 99.3 40 99.3 33.6Z" fill="#05336E"/>
<path d="M138.7 32.9C138.7 39 138.8 41.4 139 43.4H134.4C134.7 41.4 134.7 39 134.7 32.9V25.2H125.6V32.9C125.6 39 125.7 41.4 125.9 43.4H121.3C121.6 41.4 121.6 39 121.6 32.9C121.6 27.3 121.5 25.1 121.3 23.2H139C138.8 25.2 138.7 27.3 138.7 32.9Z" fill="#05336E"/>
<path d="M159.8 36.9C159.8 41 156.8 43.8 152.2 43.8C147.6 43.8 144.3 41.3 144.3 34.1C144.3 26.7 146.9 24.1 153.1 23.5L155.8 23.2C157.4 23.1 158.2 22.4 158.2 22.4V26.6L152.8 26.9C148 27.2 146.3 28.7 146.2 33.4C147.4 31.3 149.6 30 152.5 30C157 30 159.8 32.8 159.8 36.9ZM155.7 36.9C155.7 33.8 154.3 31.7 152.2 31.7C150.1 31.7 148.6 33.7 148.6 36.9C148.6 40.1 150.1 42.1 152.2 42.1C154.3 42.1 155.7 40 155.7 36.9Z" fill="#05336E"/>
<path d="M177.7 26.2C174.8 25.1 172.8 25 169.9 25H169.4V32.9C169.4 39 169.5 41.4 169.7 43.4H165.1C165.4 41.4 165.4 39 165.4 32.9C165.4 27.3 165.3 25.1 165.1 23.2H177.6V26.2H177.7Z" fill="#05336E"/>
<path d="M198.5 33C198.5 39.7 193.8 43.8 186.9 43.8C183.5 43.8 181.1 43.1 181.1 43.1V39.4C181.1 39.4 183.2 42.1 186.8 42.1C191.2 42.1 193.9 38.9 194.1 33.8H193C190 33.8 187.8 33.9 184.5 34.5V31.3C187.8 31.8 190 32 193 32H194.1C193.7 27.4 191.2 24.6 187.1 24.6C183.5 24.6 181.4 27.1 181.4 27.1L181.1 24.2C181.1 24.2 183.3 22.8 187.4 22.8C194.2 22.8 198.5 26.7 198.5 33Z" fill="#05336E"/>
<path d="M217.5 23.2V26.2C215.2 25.3 213.6 25 211.9 25H211.3V32.9C211.3 39 211.4 41.4 211.6 43.4H207C207.3 41.4 207.3 39 207.3 32.9V25H206.8C204.9 25 203.4 25.3 201.1 26.2V23.2H217.5Z" fill="#05336E"/>
<path d="M239.5 23.2C237.7 26.1 236.8 29.1 234.5 34.4C231.8 40.5 230.3 43.6 225.9 43.6C224.3 43.6 223.6 43.1 223.6 43.1V39.8C223.6 39.8 224.8 41.2 226.6 41.2C228 41.2 229 40.6 229.8 39.4L222.7 27.4C221.8 25.9 221.4 25.3 220 23.2H225.3C225.8 25.2 226.1 26 227.9 29L231.9 35.7C232.1 35.2 232.4 34.5 232.7 33.8C234.8 28.1 235.5 26.4 235.6 23.2H239.5V23.2Z" fill="#05336E"/>
<path d="M251.9 27.3H253.4L250.5 32.8L253.4 38.3H251.9L248.1 32.8L251.9 27.3ZM256.5 27.3H258L255.1 32.8L258 38.3H256.5L252.7 32.8L256.5 27.3Z" fill="#05336E"/>
<path d="M279.7 43.4H274.5C274.4 41.2 274.2 40.3 272.7 36.6L268.8 27.1L265.3 36.5C264 40 263.7 41.2 263.4 43.3H259.9C260.9 41.2 261.3 40.3 262.8 36.4L268.3 23.1H270.3V23.2L270.4 23.1H271.5L277.4 37.7C278.3 40.4 278.7 41.2 279.7 43.4Z" fill="#05336E"/>
<path d="M299.3 33C299.3 39.7 294.6 43.8 287.7 43.8C284.3 43.8 281.9 43.1 281.9 43.1V39.4C281.9 39.4 284 42.1 287.6 42.1C292 42.1 294.7 38.9 294.9 33.8H293.8C290.8 33.8 288.6 33.9 285.3 34.5V31.3C288.6 31.8 290.8 32 293.8 32H294.9C294.5 27.4 292 24.6 287.9 24.6C284.3 24.6 282.2 27.1 282.2 27.1L281.9 24.2C281.9 24.2 284.1 22.8 288.2 22.8C295 22.8 299.3 26.7 299.3 33Z" fill="#05336E"/>
<path d="M318.3 23.2V26.2C316 25.3 314.4 25 312.7 25H312.1V32.9C312.1 39 312.2 41.4 312.4 43.4H307.8C308.1 41.4 308.1 39 308.1 32.9V25H307.6C305.7 25 304.2 25.3 301.9 26.2V23.2H318.3Z" fill="#05336E"/>
<path d="M340.8 32.9C340.8 39 340.9 41.4 341.1 43.4H336.5C336.8 41.4 336.8 39 336.8 32.9V27L327.2 43.3H323C323.3 41.3 323.3 39.1 323.3 33.6C323.3 27.5 323.2 25.1 323 23.1H327.6C327.3 25.1 327.3 27.5 327.3 33.6V39.5L336.9 23.2H341.1C340.9 25.2 340.8 27.3 340.8 32.9Z" fill="#05336E"/>
<path d="M347.6 38.3H346.1L349 32.8L346.1 27.3H347.6L351.4 32.8L347.6 38.3ZM352.3 38.3H350.8L353.7 32.8L350.8 27.3H352.3L356.1 32.8L352.3 38.3Z" fill="#05336E"/>
<path d="M109.5 61.4C109.5 64.3 109.5 65.5 109.7 66.5H107.5C107.6 65.5 107.7 64.4 107.7 61.4V57.6H103.3V61.4C103.3 64.3 103.3 65.5 103.5 66.5H101.3C101.4 65.5 101.5 64.4 101.5 61.4C101.5 58.7 101.5 57.6 101.3 56.7H109.8C109.5 57.6 109.5 58.7 109.5 61.4Z" fill="#05336E"/>
<path d="M119.2 64.9V66.5H112.8C112.9 65.5 113 64.4 113 61.4C113 58.7 113 57.6 112.8 56.7H118.9V58.2C117.5 57.7 116.5 57.6 115.1 57.6H114.9V60.9C116.1 60.9 116.8 60.8 118 60.6V62.2C116.8 61.9 116.1 61.9 114.9 61.9V65.7H115.4C116.9 65.6 118 65.5 119.2 64.9Z" fill="#05336E"/>
<path d="M128.8 59.4C128.8 61.4 127.4 62.5 124.6 62.5H123.9C123.9 64.4 123.9 65.5 124.1 66.4H121.9C122 65.4 122.1 64.3 122.1 61.3C122.1 58.6 122.1 57.5 121.9 56.6H125.3C127.5 56.6 128.8 57.6 128.8 59.4ZM126.8 59.5C126.8 58.2 126.2 57.5 124.8 57.5H123.9V61.6H124.5C126.1 61.7 126.8 60.9 126.8 59.5Z" fill="#05336E"/>
<path d="M138.8 63.6C138.8 65.4 137.4 66.5 134.6 66.5H131.5C131.6 65.5 131.7 64.4 131.7 61.4C131.7 58.7 131.7 57.6 131.5 56.7H135C137.3 56.7 138.4 57.5 138.4 58.9C138.4 60 137.7 61 136.1 61.3C138.1 61.5 138.8 62.4 138.8 63.6ZM133.5 57.5V60.9H134.3C135.7 60.9 136.4 60.3 136.4 59.1C136.4 58.1 135.8 57.6 134.5 57.6H133.5V57.5ZM136.8 63.7C136.8 62.4 135.8 61.8 134.3 61.8H133.6V65.6H134.3C135.8 65.6 136.8 65 136.8 63.7Z" fill="#05336E"/>
<path d="M148.2 63.3C148.2 65.3 146.8 66.4 144 66.4H143.5H141.4C141.5 65.4 141.6 64.4 141.6 61.7C141.6 58.8 141.6 57.6 141.4 56.6H143.6C143.5 57.6 143.4 58.6 143.4 60.5H144.6C146.9 60.6 148.2 61.5 148.2 63.3ZM146.2 63.5C146.2 62.2 145.6 61.5 144.2 61.5H143.5V65.6H143.9C145.5 65.6 146.2 64.8 146.2 63.5ZM151.3 61.4C151.3 64.3 151.3 65.5 151.5 66.5H149.3C149.4 65.5 149.5 64.4 149.5 61.4C149.5 58.7 149.5 57.6 149.3 56.7H151.5C151.3 57.6 151.3 58.7 151.3 61.4Z" fill="#05336E"/>
<path d="M163.3 61.4C163.3 64.3 163.3 65.5 163.5 66.5H161.3C161.4 65.5 161.5 64.4 161.5 61.4V58.6L156.8 66.5H154.7C154.8 65.5 154.9 64.5 154.9 61.8C154.9 58.9 154.9 57.7 154.7 56.7H156.9C156.8 57.7 156.7 58.8 156.7 61.8V64.6L161.4 56.7H163.5C163.3 57.6 163.3 58.7 163.3 61.4ZM156.3 54H158C158 54 157.9 55.5 159.1 55.5C160.3 55.5 160.2 54 160.2 54H161.9C161.9 54 161.5 56.2 159.1 56.2C156.7 56.2 156.3 54 156.3 54Z" fill="#05336E"/>
<path d="M178.8 61.4C178.8 64.7 176.5 66.7 173.2 66.7C171.6 66.7 170.4 66.4 170.4 66.4V64.6C170.4 64.6 171.4 65.9 173.2 65.9C175.3 65.9 176.7 64.4 176.7 61.9H176.2C174.7 61.9 173.7 62 172.1 62.2V60.6C173.7 60.9 174.8 61 176.2 61H176.7C176.5 58.8 175.3 57.4 173.3 57.4C171.5 57.4 170.5 58.6 170.5 58.6L170.4 57.2C170.4 57.2 171.5 56.5 173.5 56.5C176.7 56.5 178.8 58.3 178.8 61.4Z" fill="#05336E"/>
<path d="M189.5 66.5H187C186.9 65.4 186.9 65 186.1 63.2L184.2 58.6L182.5 63.2C181.9 64.9 181.7 65.5 181.6 66.5H179.9C180.4 65.5 180.6 65.1 181.3 63.2L184 56.7H185H185.5L188.4 63.8C188.9 65 189 65.4 189.5 66.5Z" fill="#05336E"/>
<path d="M197.9 64.9V66.5H191.5C191.6 65.5 191.7 64.4 191.7 61.4C191.7 58.7 191.7 57.6 191.5 56.7H197.6V58.2C196.2 57.7 195.2 57.6 193.8 57.6H193.6V60.9C194.8 60.9 195.5 60.8 196.7 60.6V62.2C195.5 61.9 194.8 61.9 193.6 61.9V65.7H194.1C195.5 65.6 196.6 65.5 197.9 64.9Z" fill="#05336E"/>
<path d="M202.7 56.6C202.6 57.6 202.5 58.6 202.5 61.3C202.5 64.2 202.5 65.4 202.7 66.4H200.5C200.6 65.4 200.7 64.3 200.7 61.3C200.7 58.6 200.7 57.5 200.5 56.6H202.7ZM209.4 66.5H206.4L202.8 61.3L204.8 59.3C205.9 58.1 206.4 57.6 206.8 56.7H208.9C208.9 56.7 207.7 57.7 206.6 58.8L204.7 60.7L206.3 62.9C207.5 64.6 208.2 65.4 209.4 66.5Z" fill="#05336E"/>
<path d="M218.3 56.6V58.1C217.2 57.7 216.4 57.5 215.6 57.5H215.3V61.3C215.3 64.2 215.3 65.4 215.5 66.4H213.3C213.4 65.4 213.5 64.3 213.5 61.3V57.5H213.2C212.3 57.5 211.5 57.6 210.4 58.1V56.6H218.3V56.6Z" fill="#05336E"/>
<path d="M227.5 59.4C227.5 61.4 226.1 62.5 223.3 62.5H222.6C222.6 64.4 222.6 65.5 222.8 66.4H220.6C220.7 65.4 220.8 64.3 220.8 61.3C220.8 58.6 220.8 57.5 220.6 56.6H224C226.2 56.6 227.5 57.6 227.5 59.4ZM225.5 59.5C225.5 58.2 224.9 57.5 223.5 57.5H222.6V61.6H223.2C224.8 61.7 225.5 60.9 225.5 59.5Z" fill="#05336E"/>
<path d="M229.5 61.7C229.5 58.5 231.5 56.5 234.8 56.5C237.8 56.5 239.7 58.4 239.7 61.5C239.7 64.7 237.7 66.7 234.4 66.7C231.4 66.6 229.5 64.7 229.5 61.7ZM237.6 61.6C237.6 58.9 236.4 57.3 234.6 57.3C232.8 57.3 231.7 58.9 231.7 61.4C231.7 64.1 232.9 65.7 234.7 65.7C236.5 65.8 237.6 64.2 237.6 61.6Z" fill="#05336E"/>
<path d="M249 56.6V58.1C247.9 57.7 247.1 57.5 246.3 57.5H246V61.3C246 64.2 246 65.4 246.2 66.4H244C244.1 65.4 244.2 64.3 244.2 61.3V57.5H243.9C243 57.5 242.2 57.6 241.1 58.1V56.6H249V56.6Z" fill="#05336E"/>
<path d="M257.7 64.9V66.5H251.3C251.4 65.5 251.5 64.4 251.5 61.4C251.5 58.7 251.5 57.6 251.3 56.7H257.4V58.2C256 57.7 255 57.6 253.6 57.6H253.4V60.9C254.6 60.9 255.3 60.8 256.5 60.6V62.2C255.3 61.9 254.6 61.9 253.4 61.9V65.7H253.9C255.4 65.6 256.5 65.5 257.7 64.9Z" fill="#05336E"/>
<path d="M268.2 66.5H265.5C265.2 65.6 264.9 65.1 264.1 63.7L263.3 62.5L262.6 63.6C261.8 64.9 261.4 65.5 261.2 66.5H259.3C259.3 66.5 260 65.6 260.8 64.5L262.8 61.7L260.9 58.7C260.1 57.5 259.4 56.7 259.4 56.7H262C262.3 57.6 262.6 58.1 263.4 59.5L264 60.5L264.5 59.7C265.3 58.4 265.7 57.8 265.9 56.8H267.8C267.8 56.8 267.1 57.7 266.3 58.8L264.5 61.3L266.6 64.6C267.5 65.7 268.2 66.5 268.2 66.5Z" fill="#05336E"/>
<path d="M278.9 61.4C278.9 64.3 278.9 65.5 279.1 66.5H276.9C277 65.6 277.1 64.5 277.1 61.8H272.6C272.6 64.4 272.6 65.5 272.8 66.5H270.6C270.7 65.5 270.8 64.4 270.8 61.4C270.8 58.7 270.8 57.6 270.6 56.7H272.8C272.7 57.6 272.6 58.6 272.6 60.9H277.1C277.1 58.6 277.1 57.6 276.9 56.7H279.1C278.9 57.6 278.9 58.7 278.9 61.4Z" fill="#05336E"/>
<path d="M290.9 61.4C290.9 64.3 290.9 65.5 291.1 66.5H288.9C289 65.5 289.1 64.4 289.1 61.4V58.6L284.4 66.5H282.3C282.4 65.5 282.5 64.5 282.5 61.8C282.5 58.9 282.5 57.7 282.3 56.7H284.5C284.4 57.7 284.3 58.8 284.3 61.8V64.6L289 56.7H291.1C290.9 57.6 290.9 58.7 290.9 61.4Z" fill="#05336E"/>
<path d="M301.2 61.4C301.2 64.3 301.2 65.5 301.4 66.5H299.2C299.3 65.6 299.4 64.6 299.4 62.2C298.9 62.4 298 62.8 296.7 62.8C294.7 62.8 294 61.8 294 60.1C294 58.7 294 57.6 293.8 56.6H296C295.9 57.6 295.8 58.8 295.8 59.9C295.8 61.1 296.2 61.6 297.3 61.6C298.1 61.6 298.9 61.4 299.3 61.2C299.3 58.6 299.3 57.5 299.1 56.6H301.3C301.2 57.6 301.2 58.7 301.2 61.4Z" fill="#05336E"/>
<path d="M310.9 64.9V66.5H304.5C304.6 65.5 304.7 64.4 304.7 61.4C304.7 58.7 304.7 57.6 304.5 56.7H310.6V58.2C309.2 57.7 308.2 57.6 306.8 57.6H306.6V60.9C307.8 60.9 308.5 60.8 309.7 60.6V62.2C308.5 61.9 307.8 61.9 306.6 61.9V65.7H307.1C308.6 65.6 309.7 65.5 310.9 64.9Z" fill="#05336E"/>
<path d="M312.9 61.7C312.9 58.3 315.1 56.4 318.4 56.4C320 56.4 321.1 56.7 321.1 56.7V58.6C321.1 58.6 320.2 57.3 318.4 57.3C316.3 57.3 315 59 315 61.6C315 64.1 316.3 65.7 318.5 65.7C320.3 65.7 321.3 64.7 321.3 64.7L321.4 65.9C321.4 65.9 320.2 66.6 317.9 66.6C315 66.6 312.9 64.8 312.9 61.7Z" fill="#05336E"/>
<path d="M326 56.6C325.9 57.6 325.8 58.6 325.8 61.3C325.8 64.2 325.8 65.4 326 66.4H323.8C323.9 65.4 324 64.3 324 61.3C324 58.6 324 57.5 323.8 56.6H326ZM332.6 66.5H329.6L326 61.3L328 59.3C329.1 58.1 329.6 57.6 330 56.7H332.1C332.1 56.7 330.9 57.7 329.8 58.8L327.9 60.7L329.5 62.9C330.7 64.6 331.4 65.4 332.6 66.5Z" fill="#05336E"/>
<path d="M343.1 61.4C343.1 64.3 343.1 65.5 343.3 66.5H341C341.1 65.5 341.2 64.4 341.2 61.4V58.6L336.5 66.5H334.4C334.5 65.5 334.6 64.5 334.6 61.8C334.6 58.9 334.6 57.7 334.4 56.7H336.6C336.5 57.7 336.4 58.8 336.4 61.8V64.6L341.1 56.7H343.2C343.1 57.6 343.1 58.7 343.1 61.4Z" fill="#05336E"/>
<path d="M355.1 61.4C355.1 64.3 355.1 65.5 355.3 66.5H353C353.1 65.5 353.2 64.4 353.2 61.4V58.6L348.5 66.5H346.4C346.5 65.5 346.6 64.5 346.6 61.8C346.6 58.9 346.6 57.7 346.4 56.7H348.6C348.5 57.7 348.4 58.8 348.4 61.8V64.6L353.1 56.7H355.2C355.1 57.6 355.1 58.7 355.1 61.4ZM348 54H349.7C349.7 54 349.6 55.5 350.8 55.5C352 55.5 351.9 54 351.9 54H353.6C353.6 54 353.2 56.2 350.8 56.2C348.4 56.2 348 54 348 54Z" fill="#05336E"/>
<path d="M53.4 47.3C53.5 48.2 53.5 49.1 53.5 51.6C53.5 54.3 53.5 55.4 53.4 56.2H55.3C55.2 55.3 55.2 54.2 55.2 51.6C55.2 49.1 55.2 48.2 55.3 47.3H53.4Z" fill="#05336E"/>
<path d="M57.1 53.9C57.1 55.5 58.3 56.4 60.4 56.4C62.5 56.4 63.8 55.4 63.8 53.8C63.8 52.7 63.2 51.9 62 51.6C62.9 51.3 63.5 50.5 63.5 49.5C63.5 48 62.4 47.1 60.5 47.1C58.6 47.1 57.4 48 57.4 49.5C57.4 50.5 57.9 51.2 58.9 51.5C57.7 52 57.1 52.8 57.1 53.9ZM60.4 48C61.2 48 61.7 48.6 61.7 49.6C61.7 50.6 61.2 51.2 60.5 51.2C59.7 51.2 59.2 50.6 59.2 49.6C59.1 48.6 59.6 48 60.4 48ZM60.4 52.1C61.3 52.1 61.9 52.8 61.9 53.9C61.9 55 61.3 55.6 60.5 55.6C59.6 55.6 59 54.9 59 53.8C58.9 52.7 59.5 52.1 60.4 52.1Z" fill="#05336E"/>
<path d="M65 53.9C65 55.5 66.2 56.4 68.3 56.4C70.4 56.4 71.7 55.4 71.7 53.8C71.7 52.7 71.1 51.9 69.9 51.6C70.8 51.3 71.4 50.5 71.4 49.5C71.4 48 70.3 47.1 68.4 47.1C66.5 47.1 65.3 48 65.3 49.5C65.3 50.5 65.8 51.2 66.8 51.5C65.6 52 65 52.8 65 53.9ZM68.3 48C69.1 48 69.6 48.6 69.6 49.6C69.6 50.6 69.1 51.2 68.4 51.2C67.6 51.2 67.1 50.6 67.1 49.6C67.1 48.6 67.5 48 68.3 48ZM68.3 52.1C69.2 52.1 69.8 52.8 69.8 53.9C69.8 55 69.2 55.6 68.4 55.6C67.5 55.6 66.9 54.9 66.9 53.8C66.9 52.7 67.4 52.1 68.3 52.1Z" fill="#05336E"/>
<path d="M76.8 50.5C75.8 50.5 75.1 51 74.7 51.4C74.8 49.4 75.3 48 76.8 48C77.9 48 78.5 49.1 78.5 49.1V47.5C78.5 47.5 77.9 47.2 76.7 47.2C74.4 47.2 72.8 48.9 72.8 52C72.8 55.1 74.1 56.5 76.2 56.5C78.2 56.5 79.4 55.3 79.4 53.4C79.5 51.5 78.5 50.5 76.8 50.5ZM76.4 55.6C75.5 55.6 74.9 54.8 74.8 52.5C75.1 52.1 75.6 51.7 76.3 51.7C77.3 51.7 77.7 52.3 77.7 53.6C77.7 54.8 77.2 55.6 76.4 55.6Z" fill="#05336E"/>
<path d="M70.5 21.5C57.8 8.80001 37.3 8.80001 24.7 21.5C18.6 27.6 15.4 35.6 15.2 43.7V43.8C15.2 44.1 15.2 44.5 15.2 44.8C15.2 44.7 15.2 44.5 15.2 44.4C15.2 47.2 15.5 49.9 16.2 52.7C20.7 70 38.4 80.4 55.8 75.9C64 73.8 70.6 68.7 74.8 62.2H74.7C70.8 67.8 65 72.1 57.9 73.9C42.1 78 25.9 68.5 21.8 52.7C21 49.7 20.8 46.6 20.9 43.7H22.2C22.1 46.1 22.4 48.6 23 51C26.7 65.2 41.2 73.7 55.3 70C60.5 68.7 64.9 65.8 68.2 62.2C64 66.2 58.2 68.7 51.9 68.7C45.1 68.7 39 65.8 34.6 61.2C34.5 61.1 34.5 61.1 34.4 61C34.3 60.9 34.3 60.8 34.2 60.8C31.9 58 30 54.7 29 50.9C28.4 48.5 28.2 46.1 28.3 43.7H29.8C29.7 45.7 29.9 47.8 30.4 49.8C33.2 60.7 44.3 67.2 55.2 64.4C57.1 63.9 58.8 63.2 60.4 62.2H60C57.9 63.1 55.5 63.7 53 63.7C43.3 63.7 35.3 55.8 35.3 46C35.3 45.2 35.4 44.4 35.5 43.7H40.1H59.2H65.4H74.1H80C79.8 35.6 76.7 27.6 70.5 21.5ZM25.5 42.8C26.1 39.5 27.7 36.4 30.2 33.9C36.9 27.2 47.8 27.2 54.5 33.9C56.2 35.6 57.5 37.7 58.4 39.8L25.5 42.8ZM59.7 31.2C51.8 23.3 38.9 23.3 30.9 31.2C27.6 34.5 25.8 38.6 25.2 42.8L20 43.3C20.7 38.3 22.9 33.4 26.7 29.5C36 20.2 51.1 20.2 60.3 29.5C63.1 32.3 65 35.6 66.1 39.1L64.6 39.2C63.7 36.3 62.1 33.5 59.7 31.2ZM72.3 38.5C71.2 34 68.9 29.8 65.4 26.3C55 15.9 38 15.9 27.6 26.3C22.9 31 20.4 37 19.9 43.2L16.9 43.5L15.3 43.6C15.7 36.6 18.5 29.6 23.9 24.3C35.5 12.7 54.2 12.7 65.8 24.3C69.8 28.3 72.4 33.2 73.6 38.4L72.3 38.5Z" fill="#05336E"/>
</svg>
