<svg width="92" height="25" viewBox="0 0 92 25" fill="none" xmlns="http://www.w3.org/2000/svg">
<path d="M32.1673 1H37.414L37.8175 1.80717L39.0283 2.21076H50.7323L53.1539 1.80717V1H60.822L62.0328 1.80717V6.65022H69.2974L71.7189 7.4574L72.9296 8.26457V10.6861H78.1763L80.5978 11.0897L84.6337 11.8969L89.0732 13.1076L90.6875 15.1256V17.5471L89.0732 18.7578L85.0373 19.9686L79.387 21.1794L74.1404 21.9865L69.2974 22.3901L61.2256 23.1973L29.7458 24.0045H24.0956L15.2166 23.6009L9.97001 23.1973L3.10902 21.9865L0.6875 20.7758V18.3543V17.1435L1.49467 15.9327L3.9162 15.1256L9.97001 13.9148L15.2166 13.1076L18.4453 12.704V9.47534L20.0597 8.66816L23.2884 7.4574L25.7099 7.05381H29.7458V1.80717L32.1673 1Z" fill="#414141" stroke="black"/>
<path d="M1.49467 18.3542L0.6875 17.1434L1.49467 15.9327L3.9162 15.1255L9.97001 13.9147L18.4453 12.704V13.9147L19.6561 15.9327L22.0776 17.1434L25.7099 17.547L32.5709 17.9506H41.8534H50.7323L57.3078 17.547L62.0328 17.1434L66.0687 16.7398L69.1875 15.9327L71.1875 14.5L72.1875 12.704L72.9296 10.686H78.1763L84.6337 11.8968L89.0731 13.1076L90.6875 15.1255L89.4767 15.9327L88.266 16.7398L86.6516 17.547L83.4229 18.3542L79.387 19.1614L75.7548 19.565L70.5081 19.9685L66.4723 20.3721L62.0328 20.7757H57.3078C57.0794 20.7757 34.1294 21.5 22.0776 21.5L12.1875 20.7757L6.6875 19.9685L3.51261 19.1614L1.49467 18.3542Z" fill="#BABABA" stroke="black"/>
</svg>
