<svg width="82" height="22" viewBox="0 0 82 22" fill="none" xmlns="http://www.w3.org/2000/svg">
<path d="M28.9821 1H33.6457L34.0045 1.71749L35.0807 2.07623H45.4843L47.6368 1.71749V1H54.4529L55.5291 1.71749V6.02242H61.9865L64.139 6.73991L65.2152 7.4574V9.60987H69.8789L72.0314 9.96861L75.6188 10.6861L79.565 11.7623L81 13.5561V15.7085L79.565 16.7848L75.9776 17.861L70.9552 18.9372L66.2915 19.6547L61.9865 20.0135L54.8117 20.7309L26.8296 21.4484H21.8072L13.9148 21.0897L9.25112 20.7309L3.15247 19.6547L1 18.5785V16.426V15.3498L1.71749 14.2735L3.86996 13.5561L9.25112 12.4798L13.9148 11.7623L16.7848 11.4036V8.53363L18.2197 7.81614L21.0897 6.73991L23.2422 6.38117H26.8296V1.71749L28.9821 1Z" fill="#414141" stroke="black"/>
<path d="M1.71749 16.426L1 15.3498L1.71749 14.2735L3.86996 13.5561L9.25112 12.4798L16.7848 11.4036V12.4798L17.861 14.2735L20.0135 15.3498L23.2422 15.7085L29.3408 16.0673H37.5919H45.4843L51.3292 15.7085L55.5291 15.3498L59.1166 14.991L61.8889 14.2735L63.6667 13L64.5556 11.4036L65.2152 9.60986H69.8789L75.6188 10.6861L79.565 11.7623L81 13.5561L79.9238 14.2735L78.8475 14.991L77.4126 15.7085L74.5426 16.426L70.9552 17.1435L67.7265 17.5022L63.0628 17.861L59.4753 18.2197L55.5291 18.5785H51.3292C51.1262 18.5785 30.7262 19.2222 20.0135 19.2222L11.2222 18.5785L6.33333 17.861L3.51121 17.1435L1.71749 16.426Z" fill="#BABABA" stroke="black"/>
</svg>
